<?xml version="1.0" encoding="utf-8"?>
<!-- Generator: Adobe Illustrator 18.1.1, SVG Export Plug-In . SVG Version: 6.00 Build 0)  -->
<svg version="1.1" id="Layer_1" xmlns="http://www.w3.org/2000/svg" xmlns:xlink="http://www.w3.org/1999/xlink" x="0px" y="0px"
	 viewBox="0 0 15000 10000" enable-background="new 0 0 15000 10000" xml:space="preserve">
<rect y="6666.7" fill="#3F9C35" width="15000" height="3333.3"/>
<rect y="3333.3" fill="#ED2939" width="15000" height="3333.3"/>
<rect y="0" fill="#00B9E4" width="15000" height="3333.3"/>
<path fill="#FFFFFF" d="M8337.8,5950.1c-317.7,425.2-950.2,694.3-1595.6,499.2c-644.6-194.9-1075.6-787-1069.6-1450.2
	c6.5-721.9,507.1-1293.8,1143-1449.2c648.4-158.4,1244.1,135.4,1522.1,520.3c-285.1-234.4-610.3-341-977-296.7
	c-366.9,44.3-659,222-872.7,523.1c-332.9,469-295.4,1106.6,91.8,1541.8c227.7,255.9,516.9,394.7,858.1,415.4
	C7776.8,6274.4,8075.4,6164.7,8337.8,5950.1z"/>
<path fill="#FFFFFF" d="M8266.6,4422.9c136.3,64.3,272.5,128.7,415.2,196c52.4-145.7,104.3-290,156.2-434.4
	c3.8-0.2,7.6-0.4,11.4-0.6c51.7,143.9,103.4,287.9,156.3,435c140.9-66.5,278.8-131.6,416.6-196.6c3.2,2.5,6.4,5.1,9.7,7.6
	c-64.8,136.9-129.5,273.9-197.3,417.3c146.3,52.7,290,104.5,433.7,156.2c0.1,4.2,0.1,8.3,0.2,12.5
	c-142.7,51.1-285.3,102.2-434,155.5c67.2,141.8,132.2,279.3,197.3,416.7c-2.3,3.1-4.6,6.2-6.8,9.3
	c-138.4-65.2-276.8-130.4-419.2-197.5c-52.6,146.8-104.1,290.3-155.5,433.8c-3.8,0.8-7.7,1.5-11.5,2.3
	c-51.7-143.6-103.3-287.2-156.9-436.2c-140.6,66.4-278.1,131.3-415.5,196.2c-3.4-2.5-6.8-4.9-10.3-7.4
	c64.6-136.7,129.3-273.4,197.2-417.2c-146.3-52.5-289.2-103.8-432.2-155c-0.7-4.3-1.5-8.5-2.2-12.8
	c143.4-51.7,286.7-103.5,434.3-156.7c-67-141.3-131.5-277.5-196.1-413.8C8260.3,4429.9,8263.4,4426.4,8266.6,4422.9z"/>
</svg>
